<svg width="86" height="86" viewBox="0 0 86 86" fill="none" xmlns="http://www.w3.org/2000/svg">
<rect x="2.5" y="2.5" width="71" height="71" stroke="white" stroke-width="5"/>
<rect x="12.5" y="12.5" width="71" height="71" stroke="white" stroke-width="5"/>
<path d="M23.5625 53.2727H26.5114L28.5398 58.2159H28.642L30.6705 53.2727H33.6193V62H31.3011V56.9545H31.233L29.2898 61.9318H27.892L25.9489 56.9205H25.8807V62H23.5625V53.2727ZM36.0547 62.1364C35.7251 62.1364 35.4425 62.0213 35.2067 61.7912C34.9737 61.5582 34.8587 61.2756 34.8615 60.9432C34.8587 60.6193 34.9737 60.3423 35.2067 60.1122C35.4425 59.8821 35.7251 59.767 36.0547 59.767C36.3672 59.767 36.6428 59.8821 36.8814 60.1122C37.1229 60.3423 37.245 60.6193 37.2479 60.9432C37.245 61.1648 37.1868 61.3665 37.0732 61.5483C36.9624 61.7273 36.8175 61.8707 36.6385 61.9787C36.4595 62.0838 36.2649 62.1364 36.0547 62.1364ZM38.4922 62V53.2727H40.8615V60.0909H44.3899V62H38.4922ZM47.2056 62.1023C46.788 62.1023 46.4187 62.0341 46.0977 61.8977C45.7795 61.7585 45.5295 61.5483 45.3477 61.267C45.1658 60.9858 45.0749 60.6278 45.0749 60.1932C45.0749 59.8352 45.136 59.5298 45.2582 59.277C45.3803 59.0213 45.5508 58.8125 45.7695 58.6506C45.9883 58.4886 46.2425 58.3651 46.5323 58.2798C46.8249 58.1946 47.1403 58.1392 47.4783 58.1136C47.8448 58.0852 48.1388 58.0511 48.3604 58.0114C48.5849 57.9687 48.7468 57.9105 48.8462 57.8366C48.9457 57.7599 48.9954 57.6591 48.9954 57.5341V57.517C48.9954 57.3466 48.93 57.2159 48.7994 57.125C48.6687 57.0341 48.5011 56.9886 48.2965 56.9886C48.0721 56.9886 47.8888 57.0384 47.7468 57.1378C47.6076 57.2344 47.5238 57.3835 47.4954 57.5852H45.3306C45.359 57.1875 45.4854 56.821 45.7099 56.4858C45.9371 56.1477 46.2681 55.8778 46.7028 55.6761C47.1374 55.4716 47.68 55.3693 48.3306 55.3693C48.7994 55.3693 49.2198 55.4247 49.592 55.5355C49.9641 55.6435 50.2809 55.7955 50.5423 55.9915C50.8036 56.1847 51.0025 56.4119 51.1388 56.6733C51.2781 56.9318 51.3477 57.2131 51.3477 57.517V62H49.1488V61.0795H49.0977C48.967 61.3239 48.8079 61.5213 48.6204 61.6719C48.4357 61.8224 48.2241 61.9318 47.9854 62C47.7496 62.0682 47.4897 62.1023 47.2056 62.1023ZM47.9727 60.6193C48.1516 60.6193 48.3192 60.5824 48.4755 60.5085C48.6346 60.4347 48.7638 60.3281 48.8633 60.1889C48.9627 60.0497 49.0124 59.8807 49.0124 59.6818V59.1364C48.9499 59.1619 48.8832 59.1861 48.8121 59.2088C48.744 59.2315 48.6701 59.2528 48.5906 59.2727C48.5138 59.2926 48.4315 59.3111 48.3434 59.3281C48.2582 59.3452 48.1687 59.3608 48.0749 59.375C47.8931 59.4034 47.744 59.4503 47.6275 59.5156C47.5138 59.5781 47.4286 59.6562 47.3718 59.75C47.3178 59.8409 47.2908 59.9432 47.2908 60.0568C47.2908 60.2386 47.3548 60.3778 47.4826 60.4744C47.6104 60.571 47.7738 60.6193 47.9727 60.6193ZM52.4375 62V53.2727H54.7898V56.5966H54.8239C54.9091 56.375 55.0341 56.1719 55.1989 55.9872C55.3636 55.7997 55.5682 55.6506 55.8125 55.5398C56.0568 55.4261 56.3409 55.3693 56.6648 55.3693C57.0966 55.3693 57.5071 55.4844 57.8963 55.7145C58.2884 55.9446 58.6065 56.3068 58.8509 56.8011C59.098 57.2955 59.2216 57.9375 59.2216 58.7273C59.2216 59.483 59.1037 60.1094 58.8679 60.6065C58.6349 61.1037 58.3224 61.4744 57.9304 61.7188C57.5412 61.9631 57.1136 62.0852 56.6477 62.0852C56.3409 62.0852 56.0668 62.0355 55.8253 61.9361C55.5866 61.8338 55.3821 61.696 55.2116 61.5227C55.044 61.3466 54.9148 61.1477 54.8239 60.9261H54.7727V62H52.4375ZM54.7386 58.7273C54.7386 59.0455 54.7798 59.321 54.8622 59.554C54.9474 59.7841 55.0668 59.9631 55.2202 60.0909C55.3764 60.2159 55.5625 60.2784 55.7784 60.2784C55.9943 60.2784 56.1776 60.2173 56.3281 60.0952C56.4815 59.9702 56.598 59.7926 56.6776 59.5625C56.7599 59.3295 56.8011 59.0511 56.8011 58.7273C56.8011 58.4034 56.7599 58.1264 56.6776 57.8963C56.598 57.6634 56.4815 57.4858 56.3281 57.3636C56.1776 57.2386 55.9943 57.1761 55.7784 57.1761C55.5625 57.1761 55.3764 57.2386 55.2202 57.3636C55.0668 57.4858 54.9474 57.6634 54.8622 57.8963C54.7798 58.1264 54.7386 58.4034 54.7386 58.7273ZM66.1889 57.5852H64.0241C64.0128 57.4517 63.9659 57.3366 63.8835 57.2401C63.8011 57.1435 63.6946 57.0696 63.5639 57.0185C63.4361 56.9645 63.294 56.9375 63.1378 56.9375C62.9361 56.9375 62.7628 56.9744 62.6179 57.0483C62.473 57.1222 62.402 57.2273 62.4048 57.3636C62.402 57.4602 62.4432 57.5497 62.5284 57.6321C62.6165 57.7145 62.7855 57.7784 63.0355 57.8239L64.3651 58.0625C65.0355 58.1847 65.5341 58.3906 65.8608 58.6804C66.1903 58.9673 66.3565 59.3523 66.3594 59.8352C66.3565 60.3011 66.2173 60.706 65.9418 61.0497C65.669 61.3906 65.2955 61.6548 64.821 61.8423C64.3494 62.027 63.8111 62.1193 63.206 62.1193C62.206 62.1193 61.4233 61.9148 60.858 61.5057C60.2955 61.0966 59.9815 60.5568 59.9162 59.8864H62.2514C62.2827 60.0937 62.3849 60.2543 62.5582 60.3679C62.7344 60.4787 62.956 60.5341 63.223 60.5341C63.4389 60.5341 63.6165 60.4972 63.7557 60.4233C63.8977 60.3494 63.9702 60.2443 63.973 60.108C63.9702 59.983 63.9077 59.8835 63.7855 59.8097C63.6662 59.7358 63.4787 59.6761 63.223 59.6307L62.0639 59.4261C61.3963 59.3097 60.8963 59.0881 60.5639 58.7614C60.2315 58.4347 60.0668 58.0142 60.0696 57.5C60.0668 57.0455 60.1861 56.6605 60.4276 56.3452C60.6719 56.027 61.0199 55.7855 61.4716 55.6207C61.9261 55.4531 62.4645 55.3693 63.0866 55.3693C64.0327 55.3693 64.7784 55.5653 65.3239 55.9574C65.8722 56.3494 66.1605 56.892 66.1889 57.5852Z" fill="white"/>
</svg>
